<svg width="24" height="24" viewBox="0 0 24 24" fill="none" xmlns="http://www.w3.org/2000/svg">
<path fill-rule="evenodd" clip-rule="evenodd" d="M18.2812 0C21.75 0 24 2.25 24 5.71876V18.2812C24 21.75 21.75 24 18.2812 24H5.71876C2.25 24 0 21.75 0 18.2812V5.71876C0 2.25 2.25 0 5.71876 0H18.2812Z" fill="#33CCFF"/>
<path d="M3.02743 17H0.896751L4.50471 9.72727H7.20357L8.39675 17H6.26607L5.55584 11.7301H5.49902L3.02743 17ZM3.11266 14.1307H7.11834L6.86266 15.608H2.85698L3.11266 14.1307ZM9.10005 17L10.5489 8.27273H14.316C14.9637 8.27273 15.5106 8.39062 15.9566 8.62642C16.4026 8.86222 16.7236 9.2017 16.9197 9.64489C17.1157 10.0881 17.1626 10.6193 17.0603 11.2386C16.958 11.8636 16.7322 12.3906 16.3827 12.8196C16.0361 13.2457 15.5944 13.5696 15.0574 13.7912C14.5233 14.0099 13.9239 14.1193 13.2591 14.1193H11.0091L11.316 12.2784H13.0887C13.3671 12.2784 13.6114 12.2443 13.8216 12.1761C14.0319 12.1051 14.2023 11.9943 14.333 11.8438C14.4637 11.6903 14.5489 11.4886 14.5887 11.2386C14.6285 10.9886 14.6086 10.7855 14.529 10.6293C14.4495 10.4702 14.3174 10.3537 14.1327 10.2798C13.9481 10.2031 13.7194 10.1648 13.4466 10.1648H12.6114L11.4694 17H9.10005ZM14.8785 12.9943L16.3955 17H13.8216L12.3557 12.9943H14.8785ZM21.9743 12C21.9956 11.7656 21.9388 11.5821 21.8039 11.4496C21.6689 11.3146 21.4417 11.2472 21.1221 11.2472C20.9185 11.2472 20.748 11.2708 20.6107 11.3182C20.4758 11.3655 20.3704 11.4306 20.2947 11.5135C20.2213 11.5964 20.1751 11.6922 20.1562 11.8011C20.1349 11.8864 20.136 11.9645 20.1597 12.0355C20.1858 12.1042 20.2343 12.1669 20.3053 12.2237C20.3787 12.2805 20.4746 12.3314 20.593 12.3764C20.7137 12.4214 20.8569 12.4616 21.0226 12.4972L21.5908 12.625C21.9791 12.7102 22.3046 12.8227 22.5674 12.9624C22.8325 13.0997 23.0409 13.263 23.1924 13.4524C23.3439 13.6418 23.4433 13.8537 23.4907 14.0881C23.5404 14.3224 23.5416 14.5781 23.4942 14.8551C23.4137 15.3333 23.2279 15.7382 22.9367 16.0696C22.6455 16.401 22.2655 16.6532 21.7968 16.826C21.328 16.9988 20.7859 17.0852 20.1704 17.0852C19.5406 17.0852 19.0056 16.9917 18.5653 16.8047C18.1273 16.6153 17.81 16.3265 17.6135 15.9382C17.4194 15.5476 17.3721 15.0492 17.4715 14.4432H19.3465C19.3181 14.6657 19.3418 14.8527 19.4175 15.0043C19.4933 15.1558 19.6152 15.2706 19.7833 15.3487C19.9514 15.4268 20.1609 15.4659 20.4118 15.4659C20.6249 15.4659 20.8072 15.4399 20.9587 15.3878C21.1102 15.3357 21.2298 15.2635 21.3174 15.1712C21.405 15.0788 21.4582 14.9735 21.4772 14.8551C21.4961 14.7462 21.4772 14.6491 21.4204 14.5639C21.3635 14.4787 21.2606 14.4018 21.1114 14.3331C20.9623 14.2644 20.7575 14.2017 20.4971 14.1449L19.801 13.9886C19.1831 13.8466 18.7168 13.6122 18.4019 13.2855C18.087 12.9588 17.9758 12.5114 18.0681 11.9432C18.1439 11.4792 18.3344 11.0743 18.6398 10.7287C18.9476 10.3807 19.3382 10.1108 19.8117 9.91903C20.2876 9.72491 20.8143 9.62784 21.392 9.62784C21.9791 9.62784 22.4703 9.72609 22.8657 9.92259C23.2634 10.1191 23.5487 10.3949 23.7215 10.75C23.8967 11.1051 23.944 11.5218 23.8635 12H21.9743Z" fill="black"/>
</svg>
